<svg version="1" xmlns="http://www.w3.org/2000/svg" width="506.667" height="506.667" viewBox="0 0 380.000000 380.000000"><path d="M36.5 1.6C27.9 3.4 22 5.4 22 6.6c0 1.4 1 1.7 8.5 2.9 11.7 1.9 29.6 9.4 41.2 17.3C77.9 31 89 40.7 89 41.9c0 .4-1.7 1.3-3.7 2-11.7 4-26.8 16.2-35.4 28.4-8.6 12.2-14 29.5-13.9 44.6.1 18.2 7.5 37.2 20 51.4 2.2 2.5 4 4.7 4 5 0 .2-3.4 3-7.6 6.3-9.5 7.2-18.1 17.4-23.2 27.3-6.9 13.4-7.4 15.9-7 35.9l.3 17.7 3.4 6.7c4.3 8.6 12.3 17.5 21.1 23.3 6.7 4.4 18.8 10.1 19.7 9.2.2-.3-.5-3.2-1.7-6.6-2.2-6.6-8-29.7-8-31.9 0-3.4 2.5.2 6 8.7 14 33.9 42 61.2 76.6 74.5 4.9 1.9 10.6 3.7 12.7 4.1 2 .4 3.7 1.1 3.7 1.6 0 .6-3 4.4-6.6 8.7l-6.5 7.7 4.3 1.8c7.5 3.2 18.7 6.6 27.6 8.4 10.4 2 32.7 2.3 42.2.4 7.3-1.4 21-5.8 22.4-7.1.5-.5-2-4.8-5.8-10.1-3.7-5-7-9.7-7.2-10.4-.4-.8 1.4-1.9 4.8-3 32.9-10.9 64.7-39.2 79.2-70.6 3.7-8 8.6-21.8 8.6-24.2 0-.8.7-1.7 1.5-2.1 1.1-.4 1.5.1 1.5 1.7 0 6.4-6.3 34.3-9.9 43.8-1.5 3.8-1.6 4.9-.6 4.9.7 0 5.9-2.3 11.4-5.1 8-4 11.7-6.6 17.4-12.2 12.2-12.2 16.7-23.4 16.7-41.6 0-16-3.9-28.7-12.8-41.7-4.5-6.7-17.3-19.3-24.4-24.1-2.7-1.8-4.8-4-4.8-4.9 0-.8 2-4.4 4.5-7.8 5.9-8.4 10-16.7 12.7-26.2 2.8-10 3-28.3.5-38.6-5.6-23-23-43.4-45.2-53.3l-5.7-2.5 4.8-4.5c7.4-6.8 23.3-17.2 32.1-20.9 9.3-3.9 21.5-7.3 29.8-8.2l6-.8-4.3-1.8c-11.4-5-27.3-6-43.3-2.8-13.7 2.8-21.8 6.2-46.8 19.3-43.4 22.9-57.3 27.6-78.5 26.4-17.8-1-32.9-6.7-70.8-26.8C88.3 9.9 75.6 4.8 62.3 2.5 54.4 1.1 41.2.7 36.5 1.6zM104 58.1c0 .4-1.7 1-3.7 1.4-11.3 2.1-26.2 13.4-31.6 24-8.3 16.6-7.6 35.1 2.1 50.1 4.9 7.5 10.7 12.6 20 17.1 6.6 3.3 8.2 3.7 17.6 4.1 12 .5 20.6-1.5 28.8-6.7 13.6-8.6 22.8-25.4 22.8-41.6v-4.1l12.8 6.4 12.8 6.5 9.9-4.7c5.4-2.5 12-6 14.7-7.6 2.6-1.7 5.2-3 5.6-3 .4 0 .6 2.4.4 5.3-.8 11.9 5.1 26.7 14.1 35.7 10.3 10.4 21.3 14.4 37.1 13.8 9.2-.3 10.8-.7 17.9-4 9.1-4.4 17.6-12.3 22.1-20.7 10.3-19.2 6.3-43.9-9.6-58.6-6.2-5.8-15.8-10.9-22.3-12-8-1.3-7.9-1.2-3.7-6.1 4.4-5.4 5.7-5.4 16.7.1 18.4 9 32 26.4 37 47.2 2.6 10.8 1.7 28.2-2 38.3-8 22-25.1 38.2-47.5 45.1-5.9 1.9-9.8 2.3-18.5 2.3-20.4 0-35.3-6.2-49.5-20.4-10.1-10-15.4-19.2-19.5-34-1.5-5.2-2.8-9.6-2.9-9.8-.2-.1-1.5 4.1-3 9.5-3.6 12.8-9.3 23.6-16.9 31.9-26.5 28.9-70.3 30.9-98.9 4.5-8.7-8-15.7-18.5-19.3-28.8-3.6-10.2-4.5-28.2-2.1-38.6C50.9 77.4 68.3 57.8 90.3 50l5.2-1.9 4.2 4.7c2.3 2.6 4.2 5 4.3 5.3zm18.4 17.2c4.6 4 12.1 9.9 16.9 13.2 7.5 5.3 8.6 6.5 9.6 10.2 3.3 12.8-1.1 26.6-11.8 36.7-5.9 5.4-11 7.9-19.6 9.6-16 3.1-33.6-6.1-41-21.5-2.7-5.4-2.9-7-3-16.5 0-9.6.2-11 2.9-16.5 6.4-13 20.2-22.2 33.9-22.4 3.3-.1 4.8.8 12.1 7.2zm152.1-5.8c11 2.9 20.7 11.2 25.7 22.1 1.9 4.1 2.3 6.6 2.3 15.4 0 9.6-.3 11-2.9 16.5-12.2 24.7-44.3 29.6-62.9 9.5-9.2-9.9-12.6-23-9.2-35.6 1.6-5.8 2.2-6.8 6.4-9.7 2.5-1.7 8.7-6.6 13.7-10.8 5-4.2 9.9-7.9 11-8.2 3.9-1 10.1-.7 15.9.8zM174.5 198c5.8 11.5 10.7 21 11 21 .3 0 5.2-9.5 11-21 5.8-11.6 10.7-21 10.9-21 .2 0 3.3 2 6.9 4.4 7.8 5.3 19.8 10 29.1 11.7 9.9 1.7 27.4.7 36.4-2.1 4-1.3 7.4-2.1 7.7-1.8 1.3 1.3 2.7 17.4 2.1 25.9-1.5 23.2-10.8 45.7-26.2 62.8-12 13.4-32.6 25.6-50.9 30.3-12.6 3.2-34.1 3.2-46.8 0-18.8-4.7-33.5-13-47.3-26.7-14-13.8-21.9-27.2-27.2-46.3-2.4-8.7-2.7-11.4-2.7-25.9 0-10.3.4-16.6 1.1-17.3.7-.7 2.9-.6 7.5.5 8 1.9 24.3 1.9 33 .1 9-1.9 20.6-6.9 27.1-11.6 2.9-2.1 5.6-3.9 6-3.9.5-.1 5.5 9.3 11.3 20.9z"/><path d="M104.5 85c-1.1.5-1.4.9-.7.9 2.1.1 5.2 4 5.2 6.4 0 2.9-3.9 6.7-6.8 6.7-3 0-6.2-3.4-6.2-6.8l-.1-2.7-2.5 3c-1.3 1.6-3.2 5.4-4 8.4-5.2 17.5 11.8 33.5 29.3 27.7 20.3-6.8 20.3-35.9 0-43.5-3.3-1.3-11.4-1.3-14.2-.1zM258.3 84.6c-.8.4-.6 1.1.8 2.5 4.1 4.1 1.2 10.9-4.7 10.9-2.7 0-3.8-.6-5.3-3-1.5-2.5-2-2.8-2.9-1.7-4.3 5.2-5.4 16.4-2.3 23.3 2.4 5.2 9 10.8 14.7 12.4 16.7 4.7 32.9-11.2 28.4-27.8-1.4-5.5-6.6-12.1-11.5-14.6-3.8-2-14.5-3.2-17.2-2z"/></svg>